<svg xmlns="http://www.w3.org/2000/svg" width="147.264" height="18.771" viewBox="0 0 147.264 18.771">
  <g id="social_icons_no_circle" data-name="social icons no circle" transform="translate(0 0)">
    <path id="Path_23" data-name="Path 23" d="M18.771,14.49a7.7,7.7,0,0,1-2.212.606,3.863,3.863,0,0,0,1.693-2.131,7.709,7.709,0,0,1-2.446.934,3.855,3.855,0,0,0-6.562,3.513,10.933,10.933,0,0,1-7.938-4.024A3.855,3.855,0,0,0,2.5,18.53a3.835,3.835,0,0,1-1.744-.482c0,.016,0,.032,0,.048a3.853,3.853,0,0,0,3.089,3.776,3.864,3.864,0,0,1-1.74.066,3.856,3.856,0,0,0,3.6,2.674A7.727,7.727,0,0,1,.918,26.262,7.771,7.771,0,0,1,0,26.208a10.9,10.9,0,0,0,5.9,1.73A10.882,10.882,0,0,0,16.86,16.982q0-.251-.011-.5a7.825,7.825,0,0,0,1.922-1.994" transform="translate(128.493 -11.178)" fill="#515151"/>
    <path id="Path_24" data-name="Path 24" d="M276.437,24.212c0-.046,0-.092,0-.138q0-4.159,0-8.317v-.106h-2.771c-.123,0-.123,0-.123-.118,0-1.038,0-2.075,0-3.113,0-.095.029-.119.12-.118.884,0,1.768,0,2.653,0h.124v-.1c0-.863-.005-1.726.007-2.588a4.7,4.7,0,0,1,.447-2,3.617,3.617,0,0,1,1.933-1.83,4.558,4.558,0,0,1,1.832-.348c.724.011,1.448.043,2.172.069.135,0,.269.028.4.034.075,0,.1.032.1.107,0,.43,0,.86,0,1.29,0,.507,0,1.013,0,1.52,0,.088-.025.115-.114.115-.549,0-1.1-.011-1.649,0a3.918,3.918,0,0,0-.746.086,1.044,1.044,0,0,0-.842.881,3.1,3.1,0,0,0-.061.574c-.007.7,0,1.406,0,2.109,0,.021,0,.042,0,.074h3.159c.133,0,.135,0,.119.126-.072.553-.146,1.105-.217,1.658q-.089.693-.172,1.386c-.021.177-.017.177-.194.177h-2.7V24.01c0,.067,0,.135,0,.2Z" transform="translate(-273.545 -5.442)" fill="#515151"/>
    <g id="Group_20" data-name="Group 20" transform="translate(59.227 0)">
      <path id="Path_25" data-name="Path 25" d="M376.262,18.235H368.84a5.178,5.178,0,0,1-5.163-5.163V5.163A5.178,5.178,0,0,1,368.84,0h7.422a5.179,5.179,0,0,1,5.163,5.163v7.908a5.179,5.179,0,0,1-5.163,5.163m0-1.364a3.814,3.814,0,0,0,3.8-3.8V5.163a3.814,3.814,0,0,0-3.8-3.8H368.84a3.814,3.814,0,0,0-3.8,3.8v7.908a3.814,3.814,0,0,0,3.8,3.8Z" transform="translate(-363.677)" fill="#515151"/>
      <path id="Path_26" data-name="Path 26" d="M391.256,23.338a4.887,4.887,0,1,1-4.887-4.887,4.887,4.887,0,0,1,4.887,4.887m-4.911-3.2a3.2,3.2,0,1,0,3.2,3.2,3.2,3.2,0,0,0-3.2-3.2" transform="translate(-377.468 -14.291)" fill="#515151"/>
      <path id="Path_27" data-name="Path 27" d="M422.368,14.138a1.157,1.157,0,1,1-1.157-1.157,1.157,1.157,0,0,1,1.157,1.157" transform="translate(-407.344 -10.055)" fill="#515151"/>
    </g>
    <path id="Path_28" data-name="Path 28" d="M488.766,9.888h0l0,0c-.027-.019-.053-.04-.078-.061a2.3,2.3,0,0,1-.21-.2,4.6,4.6,0,0,1-.928-1.7h0a5.041,5.041,0,0,1-.161-1.251h-3.111s.016,12.236.016,12.4a2.622,2.622,0,0,1-4.057,2.2h0a2.753,2.753,0,0,1-1.076-1.8,2.446,2.446,0,0,1,.445-1.808,2.373,2.373,0,0,1,1.989-1.092h.006a2.956,2.956,0,0,1,.817.052h0V14.441h-.006c-.087,0,.006,0,.006,0v-1.09a5.57,5.57,0,0,0-5.683,2.809,5.937,5.937,0,0,0,1,7.124h0a5.478,5.478,0,0,0,5.165,1.441,5.808,5.808,0,0,0,4.462-5.538V12.741a5.727,5.727,0,0,0,4.362,1.379V11.04a4.243,4.243,0,0,1-2.95-1.152m.008.02h0Z" transform="translate(-449.339 -6.68)" fill="#515151"/>
    <path id="Path_29" data-name="Path 29" d="M154.409,24.5c-.028-2.026-.213-4.062-1.042-4.814-.32-.29-.625-.473-1.842-.586-1.523-.142-3.586-.161-5.145-.164H144.45c-1.559,0-3.622.022-5.145.164-1.217.113-1.522.3-1.842.586-.844.765-1.021,2.859-1.044,4.919q-.006.576,0,1.152c.025,2.043.206,4.108,1.043,4.866.32.29.624.473,1.842.586,1.523.142,3.586.161,5.145.164q.965,0,1.931,0c1.559,0,3.622-.022,5.145-.164,1.217-.113,1.521-.3,1.842-.586.83-.752,1.015-2.788,1.042-4.814.006-.436.006-.873,0-1.31M143.654,27.9V22.563l4.541,2.587Z" transform="translate(-42.557 -15.919)" fill="#515151" fill-rule="evenodd"/>
  </g>
</svg>
